<?xml version="1.0" encoding="UTF-8"?>
<svg width="120px" height="120px" viewBox="0 0 120 120" version="1.1" xmlns="http://www.w3.org/2000/svg" xmlns:xlink="http://www.w3.org/1999/xlink">
    <title>apple id copy 9</title>
    <g id="apple-id-copy-9" stroke="none" stroke-width="1" fill="none" fill-rule="evenodd">
        <g id="Group" transform="translate(31.000000, 16.000000)" fill="#000000" fill-rule="nonzero">
            <g id="􀋮" transform="translate(0.000000, 51.096774)">
                <path d="M29.5077676,36.9032258 C32.3885557,36.9032258 35.1166968,36.5554584 37.6921909,35.8599236 C40.267685,35.1643888 42.6512915,34.2439219 44.8430104,33.0985228 C47.0347293,31.9531238 49.0002682,30.6922391 50.7396272,29.3158687 C52.4789861,27.9394983 53.9651801,26.5569748 55.1982089,25.1682981 C56.4312378,23.7796214 57.3731269,22.4955484 58.0238761,21.3160791 C58.6746254,20.1366098 59,19.1817877 59,18.4516129 C59,17.7214381 58.6734746,16.766616 58.0204239,15.5871467 C57.3673731,14.4076774 56.423125,13.1236044 55.1876796,11.7349277 C53.9522341,10.346251 52.461207,8.96372748 50.7145983,7.5873571 C48.9679896,6.21098672 46.9988258,4.950102 44.807107,3.80470296 C42.6153881,2.65930391 40.2366147,1.73883699 37.6707869,1.0433022 C35.1049591,0.347767398 32.3839527,0 29.5077676,0 C26.6516055,0 23.9419915,0.347767398 21.3789255,1.0433022 C18.8158595,1.73883699 16.438467,2.65930391 14.2467482,3.80470296 C12.0550293,4.950102 10.0833338,6.21098672 8.33166182,7.5873571 C6.57998982,8.96372748 5.08257608,10.346251 3.83942061,11.7349277 C2.59626513,13.1236044 1.64557283,14.4076774 0.987343698,15.5871467 C0.329114566,16.766616 0,17.7214381 0,18.4516129 C0,19.1817877 0.327963816,20.1366098 0.983891447,21.3160791 C1.63981908,22.4955484 2.58930309,23.7796214 3.83234349,25.1682981 C5.07538389,26.5569748 6.57164688,27.9394983 8.32113246,29.3158687 C10.070618,30.6922391 12.0411627,31.9531238 14.2327665,33.0985228 C16.4243704,34.2439219 18.8029135,35.1643888 21.3683961,35.8599236 C23.9338787,36.5554584 26.6470025,36.9032258 29.5077676,36.9032258 Z M29.5077676,30.5548755 C27.802816,30.5548755 26.2086242,30.239925 24.7251921,29.6100239 C23.2417599,28.9801228 21.9401464,28.1046081 20.8203513,26.9834798 C19.7005563,25.8623516 18.8239723,24.5723533 18.1905993,23.113485 C17.5572264,21.6546167 17.2331752,20.1006594 17.2182075,18.4516129 C17.2083189,16.7635964 17.5212655,15.1875903 18.1572851,13.7235943 C18.7933048,12.2595984 19.6724204,10.9731895 20.794632,9.86436756 C21.9168437,8.75554562 23.2233479,7.89233726 24.7141449,7.27474247 C26.2049418,6.65714768 27.802816,6.34835028 29.5077676,6.34835028 C31.1977594,6.34835028 32.7844713,6.65714768 34.2679034,7.27474247 C35.7513356,7.89233726 37.0553082,8.75554562 38.1798213,9.86436756 C39.3043344,10.9731895 40.1858091,12.2595984 40.8242453,13.7235943 C41.4626816,15.1875903 41.7818997,16.7635964 41.7818997,18.4516129 C41.7818997,20.1006594 41.4626816,21.6546167 40.8242453,23.113485 C40.1858091,24.5723533 39.3043344,25.8623516 38.1798213,26.9834798 C37.0553082,28.1046081 35.7513356,28.9801228 34.2679034,29.6100239 C32.7844713,30.239925 31.1977594,30.5548755 29.5077676,30.5548755 Z M29.5215766,22.5663667 C30.6651921,22.5663667 31.6498891,22.1623662 32.4756675,21.3543654 C33.3014458,20.5463645 33.714335,19.5787804 33.714335,18.4516129 C33.714335,17.314646 33.3014458,16.3421051 32.4756675,15.5339903 C31.6498891,14.7258755 30.6651921,14.3218181 29.5215766,14.3218181 C28.3586284,14.3218181 27.3630568,14.7258755 26.5348619,15.5339903 C25.7066669,16.3421051 25.2925695,17.314646 25.2925695,18.4516129 C25.2925695,19.5787804 25.7066669,20.5463645 26.5348619,21.3543654 C27.3630568,22.1623662 28.3586284,22.5663667 29.5215766,22.5663667 Z" id="Shape"></path>
            </g>
            <g id="􀊧" transform="translate(1.903226, 0.000000)">
                <path d="M26.9626571,43.5268817 C27.689778,43.5268817 28.2689383,43.2915104 28.7001379,42.8207678 C29.1313375,42.3500251 29.3469373,41.7784091 29.3469373,41.1059196 L29.3469373,2.52183556 C29.3469373,1.8157216 29.12711,1.21888719 28.6874555,0.731332312 C28.247801,0.243777437 27.6644133,0 26.9372925,0 C26.4299988,0 25.9734345,0.117685659 25.5675996,0.353056978 C25.1617647,0.588428297 24.7052004,0.941485275 24.1979068,1.41222791 L13.1135407,11.8778455 C12.9106232,12.0627801 12.6485215,12.1552474 12.3272355,12.1552474 L4.76856025,12.1552474 C3.28049889,12.1552474 2.11372351,12.5881625 1.26823411,13.4539927 C0.422744703,14.3198229 0,15.5261009 0,17.0728267 L0,26.5801468 C0,28.1268726 0.422744703,29.3289475 1.26823411,30.1863716 C2.11372351,31.0437957 3.28049889,31.4725078 4.76856025,31.4725078 L12.3272355,31.4725078 C12.6485215,31.4725078 12.9106232,31.5649751 13.1135407,31.7499097 L24.1979068,42.1903089 C24.6544711,42.6442393 25.1025804,42.980484 25.5422349,43.1990431 C25.9818894,43.4176022 26.4553635,43.5268817 26.9626571,43.5268817 Z M38.9347871,32.3299318 C39.2898927,32.5484909 39.6661355,32.624146 40.0635155,32.556897 C40.4608955,32.4896481 40.7948638,32.271089 41.0654204,31.9012198 C42.0292783,30.640302 42.7986737,29.1272007 43.3736065,27.3619158 C43.9485393,25.5966309 44.2360057,23.7220665 44.2360057,21.7382225 C44.2360057,19.7375663 43.9485393,17.8587988 43.3736065,16.10192 C42.7986737,14.3450413 42.0292783,12.836143 41.0654204,11.5752252 C40.7948638,11.205356 40.4608955,10.9825939 40.0635155,10.9069388 C39.6661355,10.8312837 39.2898927,10.9111418 38.9347871,11.1465132 C38.5627718,11.415509 38.347172,11.7643629 38.2879877,12.1930749 C38.2288035,12.621787 38.3513994,13.0378898 38.6557756,13.4413835 C39.501265,14.5846156 40.1396095,15.8539395 40.5708091,17.2493552 C41.0020087,18.6447709 41.2176085,20.14106 41.2176085,21.7382225 C41.2176085,23.335385 41.0020087,24.8274711 40.5708091,26.2144806 C40.1396095,27.6014902 39.501265,28.8750171 38.6557756,30.0350615 C38.3683092,30.4385552 38.2499407,30.854658 38.3006701,31.2833701 C38.3513994,31.7120821 38.5627718,32.0609361 38.9347871,32.3299318 Z M47.8124259,38.9623594 C48.1844412,39.1809184 48.5691389,39.2565735 48.9665189,39.1893246 C49.3638989,39.1220756 49.6978673,38.9035165 49.9684239,38.5336473 C51.5917635,36.3648687 52.8684525,33.8094087 53.7984909,30.8672672 C54.7285292,27.9251257 55.1935484,24.8821108 55.1935484,21.7382225 C55.1935484,18.5943342 54.7327567,15.5429132 53.8111732,12.5839594 C52.8895898,9.62500571 51.6086733,7.0779518 49.9684239,4.94279769 C49.6978673,4.57292848 49.3638989,4.35016634 48.9665189,4.27451127 C48.5691389,4.1988562 48.1844412,4.27871433 47.8124259,4.51408565 C47.4573203,4.7662692 47.2544029,5.09410783 47.2036735,5.49760152 C47.1529441,5.9010952 47.2713127,6.30458889 47.5587791,6.70808258 C49.0299306,8.74236327 50.1671139,11.0540459 50.9703288,13.6431304 C51.7735437,16.2322149 52.1751512,18.9305789 52.1751512,21.7382225 C52.1751512,24.5458661 51.7735437,27.2400271 50.9703288,29.8207055 C50.1671139,32.4013839 49.0299306,34.7172695 47.5587791,36.7683624 C47.2713127,37.1550439 47.1529441,37.5543345 47.2036735,37.9662343 C47.2544029,38.3781341 47.4573203,38.7101758 47.8124259,38.9623594 Z" id="Shape"></path>
            </g>
        </g>
    </g>
</svg>