<?xml version="1.0" encoding="UTF-8"?>
<svg width="120px" height="120px" viewBox="0 0 120 120" version="1.1" xmlns="http://www.w3.org/2000/svg" xmlns:xlink="http://www.w3.org/1999/xlink">
    <title>apple id copy 7</title>
    <g id="apple-id-copy-7" stroke="none" stroke-width="1" fill="none" fill-rule="evenodd">
        <g id="ô€…" transform="translate(14.000000, 30.000000)" fill="#000000" fill-rule="nonzero">
            <path d="M44.9117254,60 C45.7231387,60 46.3452222,59.8237288 46.7779759,59.4711864 C47.2107297,59.1186441 47.5758657,58.5220339 47.8733839,57.6813559 L53.9995542,41.2881356 L79.2345074,41.2881356 L85.3606777,57.6813559 C85.6581959,58.5220339 86.0300936,59.1186441 86.4763709,59.4711864 C86.9226482,59.8237288 87.53797,60 88.3223362,60 C89.1337494,60 89.7828801,59.7762712 90.269728,59.3288136 C90.756576,58.8813559 91,58.2644068 91,57.4779661 C91,56.9898305 90.878288,56.4338983 90.634864,55.8101695 L70.4712439,2.76610169 C70.1196314,1.87118644 69.6327835,1.18644068 69.0107,0.711864407 C68.3886164,0.237288136 67.5907267,0 66.6170308,0 C64.7507802,0 63.4930896,0.908474576 62.843959,2.72542373 L42.6397682,55.8101695 C42.4233913,56.4610169 42.3152029,57.0305085 42.3152029,57.5186441 C42.3152029,58.2779661 42.5451033,58.8813559 43.0049041,59.3288136 C43.464705,59.7762712 44.1003121,60 44.9117254,60 Z M55.5818101,36.5694915 L66.5358894,7.03728814 L66.6981721,7.03728814 L77.6522514,36.5694915 L55.5818101,36.5694915 Z M2.55595185,59.7152542 C3.23212959,59.7152542 3.77983356,59.5457627 4.19906375,59.2067797 C4.61829395,58.8677966 4.94962104,58.3186441 5.19304503,57.559322 L9.37182345,45.9661017 L26.0869371,45.9661017 L30.2251449,57.559322 C30.495616,58.3457627 30.8404666,58.9016949 31.2596968,59.2271186 C31.678927,59.5525424 32.226631,59.7152542 32.9028087,59.7152542 C33.6601278,59.7152542 34.2822113,59.5050847 34.7690593,59.0847458 C35.2559073,58.6644068 35.4993313,58.0881356 35.4993313,57.3559322 C35.4993313,57.0576271 35.4587606,56.7525424 35.3776193,56.440678 C35.2964779,56.1288136 35.201813,55.8101695 35.0936246,55.4847458 L21.4213107,19.6067797 C21.0967454,18.6847458 20.6166592,17.9932203 19.9810522,17.5322034 C19.3454451,17.0711864 18.5813642,16.840678 17.6888096,16.840678 C16.8233021,16.840678 16.0795066,17.0644068 15.4574231,17.5118644 C14.8353396,17.959322 14.3484916,18.6576271 13.9968792,19.6067797 L0.324565314,55.4847458 C0.216376876,55.7830508 0.135235548,56.0949153 0.0811413286,56.420339 C0.0270471095,56.7457627 7.0866844e-15,57.0576271 7.0866844e-15,57.3559322 C7.0866844e-15,58.0881356 0.236662208,58.6644068 0.709986625,59.0847458 C1.18331104,59.5050847 1.79863278,59.7152542 2.55595185,59.7152542 Z M10.8323674,41.8169492 L17.404815,23.2677966 L18.0539456,23.2677966 L24.6263932,41.8169492 L10.8323674,41.8169492 Z" id="Shape"></path>
        </g>
    </g>
</svg>