<svg height="120" viewBox="0 0 120 120" width="120" xmlns="http://www.w3.org/2000/svg"><path d="m21.3941645 25.8626723v19.2746554h-8.4371353c-2.3603891 0-4.51989392.5772357-6.47851461 1.7317073-1.95862069 1.1544715-3.52802829 2.7042241-4.70822281 4.6492577s-1.77029178 4.1096677-1.77029178 6.4939024.59009726 4.5614175 1.77029178 6.5315483 2.74960212 3.5387062 4.70822281 4.7057264c1.95862069 1.1670201 4.11812551 1.7505302 6.47851461 1.7505302 2.3854995 0 4.5575597-.5835101 6.5161803-1.7505302 1.9586207-1.1670202 3.5217507-2.7355956 4.68939-4.7057264 1.1676392-1.9701308 1.7514589-4.1473136 1.7514589-6.5315483v-8.4326617h19.1718832v8.4326617c0 2.3842347.5838197 4.5614175 1.7514589 6.5315483 1.1676393 1.9701308 2.7307693 3.5387062 4.68939 4.7057264 1.9586206 1.1670201 4.1306808 1.7505302 6.5161803 1.7505302 2.3854996 0 4.5575597-.5835101 6.5161804-1.7505302 1.9586207-1.1670202 3.5217507-2.7355956 4.6893899-4.7057264 1.1676393-1.9701308 1.7514589-4.1473136 1.7514589-6.5315483s-.5838196-4.5488688-1.7514589-6.4939024c-1.1676392-1.9450336-2.7307692-3.4947862-4.6893899-4.6492577-1.9586207-1.1544716-4.1306808-1.7317073-6.5161804-1.7317073h-8.4371353v-19.2746554h8.4371353c2.3854996 0 4.5575597-.5709614 6.5161804-1.7128844 1.9586207-1.1419229 3.5217507-2.6854012 4.6893899-4.6304348 1.1676393-1.9450336 1.7514589-4.1096677 1.7514589-6.4939024 0-2.4093319-.5838196-4.59906328-1.7514589-6.56919407-1.1676392-1.97013079-2.7307692-3.53870626-4.6893899-4.70572641s-4.1306808-1.75053022-6.5161804-1.75053022c-2.3854995 0-4.5575597.58351007-6.5161803 1.75053022-1.9586207 1.16702015-3.5217507 2.73559562-4.68939 4.70572641-1.1676392 1.97013079-1.7514589 4.15986217-1.7514589 6.56919407v8.4326617h-19.1718832v-8.4326617c0-2.4093319-.5838197-4.59906328-1.7514589-6.56919407-1.1676393-1.97013079-2.7307693-3.53870626-4.68939-4.70572641-1.9586206-1.16702015-4.1306808-1.75053022-6.5161803-1.75053022-2.3603891 0-4.51989392.58351007-6.47851461 1.75053022s-3.52802829 2.73559562-4.70822281 4.70572641-1.77029178 4.15986217-1.77029178 6.56919407c0 2.3842347.59009726 4.5488688 1.77029178 6.4939024s2.74960212 3.4885119 4.70822281 4.6304348c1.95862069 1.141923 4.11812551 1.7128844 6.47851461 1.7128844zm-8.4371353-4.3669141c-1.5568524 0-2.96931921-.3827324-4.23740055-1.1481972-1.26808135-.7654649-2.28505747-1.7944504-3.05092838-3.0869565-.76587092-1.2925062-1.14880637-2.7042242-1.14880637-4.2351538 0-1.5811241.38293545-3.0116649 1.14880637-4.29162249.76587091-1.27995758 1.78284703-2.30266879 3.05092838-3.06813362 1.26808134-.76546483 2.68054815-1.14819724 4.23740055-1.14819724 1.5317418 0 2.937931.38273241 4.2185676 1.14819724s2.3038904 1.78817604 3.0697613 3.06813362c.7658709 1.27995759 1.1488064 2.71049839 1.1488064 4.29162249v8.4703075zm45.0859416 0h-8.4371353v-8.4703075c0-1.5811241.3829355-3.0116649 1.1488064-4.29162249.7658709-1.27995758 1.782847-2.30266879 3.0509284-3.06813362 1.2680813-.76546483 2.6805482-1.14819724 4.2374005-1.14819724 1.5317418 0 2.9379311.38273241 4.2185677 1.14819724s2.3038903 1.78817604 3.0697612 3.06813362c.7658709 1.27995759 1.1488064 2.71049839 1.1488064 4.29162249 0 1.5309296-.3829355 2.9426476-1.1488064 4.2351538-.7658709 1.2925061-1.7891246 2.3214916-3.0697612 3.0869565-1.2806366.7654648-2.6868259 1.1481972-4.2185677 1.1481972zm-32.1289124 23.7168611v-19.3875928h19.1718832v19.3875928zm-12.9570292 4.2916225h8.4371353v8.4703075c0 1.5560269-.3829355 2.9740191-1.1488064 4.2539767s-1.7891247 2.3089431-3.0697613 3.0869565-2.6868258 1.1670202-4.2185676 1.1670202c-1.5568524 0-2.96931921-.3890068-4.23740055-1.1670202-1.26808135-.7780134-2.28505747-1.8069989-3.05092838-3.0869565-.76587092-1.2799576-1.14880637-2.6979498-1.14880637-4.2539767s.38293545-2.9740191 1.14880637-4.2539767c.76587091-1.2799575 1.78284703-2.3026687 3.05092838-3.0681336 1.26808134-.7654648 2.68054815-1.1481972 4.23740055-1.1481972zm45.0859416 0c1.5317418 0 2.9379311.3827324 4.2185677 1.1481972 1.2806366.7654649 2.3038903 1.7881761 3.0697612 3.0681336.7658709 1.2799576 1.1488064 2.6979498 1.1488064 4.2539767s-.3829355 2.9740191-1.1488064 4.2539767-1.7891246 2.3089431-3.0697612 3.0869565-2.6868259 1.1670202-4.2185677 1.1670202c-1.5568523 0-2.9693192-.3890068-4.2374005-1.1670202-1.2680814-.7780134-2.2850575-1.8069989-3.0509284-3.0869565s-1.1488064-2.6979498-1.1488064-4.2539767v-8.4703075z" transform="translate(24 25)"/></svg>